<svg width="51" height="49" viewBox="0 0 51 49" fill="none" xmlns="http://www.w3.org/2000/svg">
<path d="M3.1875 18.3069C3.1875 12.9709 3.1875 10.3029 4.26835 8.26476C5.2191 6.47199 6.73615 5.01443 8.60209 4.10097C10.7234 3.0625 13.5003 3.0625 19.0542 3.0625H31.9458C37.4997 3.0625 40.2766 3.0625 42.3979 4.10097C44.2638 5.01443 45.7809 6.47199 46.7316 8.26476C47.8125 10.3029 47.8125 12.9709 47.8125 18.3069V30.6931C47.8125 36.0291 47.8125 38.6971 46.7316 40.7352C45.7809 42.528 44.2638 43.9856 42.3979 44.899C40.2766 45.9375 37.4997 45.9375 31.9458 45.9375H19.0542C13.5003 45.9375 10.7234 45.9375 8.60209 44.899C6.73615 43.9856 5.2191 42.528 4.26835 40.7352C3.1875 38.6971 3.1875 36.0291 3.1875 30.6931V18.3069Z" fill="white"/>
<path d="M35.1444 13.0508L25.6024 20.2054L15.8423 13.0508V13.0527L15.8541 13.0624V23.0808L25.4923 30.3902L35.1444 23.3631V13.0508Z" fill="#EA4335"/>
<path d="M37.6499 11.3104L35.144 13.0507V23.3631L43.0292 17.5465V14.0427C43.0292 14.0427 42.072 9.03832 37.6499 11.3104Z" fill="#FBBC05"/>
<path d="M35.144 23.3633V36.7386H41.1876C41.1876 36.7386 42.9073 36.5684 43.0311 34.685V17.5468L35.144 23.3633Z" fill="#34A853"/>
<path d="M15.8545 36.7499V23.0807L15.8423 23.071L15.8545 36.7499Z" fill="#C5221F"/>
<path d="M15.8421 13.0528L13.35 11.3222C8.92786 9.05009 7.96875 14.0525 7.96875 14.0525V17.5564L15.8421 23.0713V13.0528Z" fill="#C5221F"/>
<path d="M15.8423 13.0526V23.071L15.8545 23.0807V13.0623L15.8423 13.0526Z" fill="#C5221F"/>
<path d="M7.96875 17.5582V34.6965C8.0906 36.5818 9.81228 36.7501 9.81228 36.7501H15.8558L15.8421 23.0712L7.96875 17.5582Z" fill="#4285F4"/>
</svg>
